<svg version="1.1" id="Layer_1" xmlns="http://www.w3.org/2000/svg" xmlns:xlink="http://www.w3.org/1999/xlink" x="0px" y="0px"
	 width="100%" viewBox="0 0 1191 426" enable-background="new 0 0 1191 426" xml:space="preserve">
<path fill="#952524" opacity="1.000000" stroke="none" 
	d="
M1.000000,307.000000 
	C1.000000,205.023895 1.000000,103.047798 1.000000,1.035849 
	C397.883087,1.035849 794.766174,1.035849 1192.000000,1.035849 
	C1192.000000,102.692223 1192.000000,204.384857 1191.535400,306.607910 
	C1148.001587,307.108093 1104.932373,307.077820 1061.573730,306.947388 
	C1060.738525,306.613892 1060.192749,306.380493 1059.738281,306.136780 
	C1059.829712,306.126495 1059.785767,306.305145 1059.846924,305.951324 
	C1059.160400,304.760101 1058.412720,303.922729 1057.778320,303.097717 
	C1057.891602,303.110107 1057.821899,303.327148 1057.845947,302.966614 
	C1056.797607,301.445007 1055.724976,300.283966 1054.748779,299.122192 
	C1054.845093,299.121460 1054.787109,299.305237 1054.847046,298.951538 
	C1054.160034,297.759552 1053.413086,296.921265 1052.780273,296.096375 
	C1052.894287,296.109772 1052.822998,296.328094 1052.845825,295.967438 
	C1051.796753,294.444885 1050.724854,293.282990 1049.750000,292.120636 
	C1049.847046,292.120209 1049.789185,292.305634 1049.846802,291.951843 
	C1049.158447,290.759277 1048.412476,289.920471 1047.783936,289.093872 
	C1047.901245,289.106018 1047.834473,289.332367 1047.844727,288.952972 
	C1046.819336,287.800201 1045.783691,287.026855 1044.827515,286.247009 
	C1044.907104,286.240509 1044.750366,286.209961 1044.927490,285.834839 
	C1045.839355,283.369965 1046.081909,280.888489 1047.384888,279.250702 
	C1060.954956,262.194519 1074.624390,245.215378 1088.494995,228.403503 
	C1089.932861,226.660614 1092.794556,225.350952 1095.087158,225.196365 
	C1101.484375,224.764984 1107.929565,225.046356 1114.443970,225.046356 
	C1114.443970,222.044128 1114.443970,219.815277 1114.443970,217.341904 
	C1111.300903,217.179123 1108.505737,217.034363 1105.819824,216.453064 
	C1105.929077,213.772369 1105.929077,211.528183 1105.929077,209.268921 
	C1084.457031,209.268921 1063.466187,209.268921 1042.303223,209.268921 
	C1042.303223,211.750473 1042.303223,213.980850 1042.303223,216.446777 
	C1045.127808,216.660645 1047.730591,216.857727 1050.280029,217.498505 
	C1050.226685,220.182159 1050.226685,222.422104 1050.226685,225.201370 
	C1055.060425,225.201370 1059.174316,225.201370 1063.168091,225.519745 
	C1052.089844,238.917480 1041.131714,251.996841 1030.003906,264.771973 
	C1020.646423,251.593109 1011.458496,238.718491 1001.616760,224.927734 
	C1011.375671,224.927734 1020.039856,224.927734 1028.763306,224.927734 
	C1028.763306,222.104218 1028.763306,219.878937 1028.763306,217.399460 
	C1025.830078,217.209396 1023.218872,217.040207 1020.702759,216.437103 
	C1020.797791,213.758438 1020.797791,211.513672 1020.797791,209.287720 
	C990.415100,209.287720 960.574341,209.287720 930.572754,209.287720 
	C930.572754,211.783096 930.572754,214.009247 930.572754,216.457703 
	C933.628906,216.655426 936.405029,216.835037 939.088989,217.461090 
	C938.996765,220.134399 938.996765,222.361252 938.996765,224.908279 
	C945.642700,224.908279 951.700867,224.908279 958.021118,225.142853 
	C974.854919,248.459061 991.426697,271.540710 1008.187927,294.886200 
	C1004.656738,299.102142 1001.257935,303.160065 997.407471,307.188843 
	C945.769470,307.170471 894.583191,307.181213 843.287598,306.720123 
	C843.178345,298.991760 843.178345,291.735199 843.178345,283.871094 
	C882.036621,283.871094 920.333191,283.871094 959.029968,283.871094 
	C957.682129,266.913605 952.713562,252.083511 942.104919,239.409637 
	C941.473083,238.654816 940.160522,238.469696 939.080688,237.671417 
	C937.735718,235.866211 936.442932,234.435333 935.218628,232.948059 
	C907.831482,199.678116 860.845886,195.227753 827.602051,222.709534 
	C814.183289,233.802429 805.217163,247.899887 799.182373,263.614197 
	C799.112061,208.980194 799.112061,154.809540 799.112061,100.089462 
	C796.109558,100.089462 793.662537,100.089462 791.138916,99.633469 
	C791.062256,96.901352 791.062256,94.625221 791.062256,92.185196 
	C768.116089,92.185196 745.635132,92.185196 723.111328,92.185196 
	C723.111328,94.664726 723.111328,96.876877 723.111328,99.129883 
	C726.068115,99.349953 728.688965,99.545029 731.354370,99.877754 
	C731.398804,100.015411 731.539612,100.269333 731.347961,100.661362 
	C731.156311,103.154892 731.156311,105.256386 731.156311,107.983299 
	C740.055115,107.983299 748.601318,107.983299 757.276367,108.438431 
	C757.423035,143.804047 757.455139,178.714523 757.446838,213.625000 
	C757.445068,221.097855 757.296692,228.570679 756.928589,235.857086 
	C754.589722,233.696976 752.538147,231.723282 750.272827,229.479156 
	C750.003418,228.985809 749.947571,228.762909 749.878540,228.572617 
	C749.865356,228.605209 749.847839,228.638229 749.545654,228.368805 
	C747.805542,226.537613 746.285339,225.043152 744.943359,223.402847 
	C737.759338,214.621796 728.826111,208.475250 717.636169,206.300003 
	C697.924683,202.468231 679.686462,206.048645 663.350342,218.085785 
	C652.654846,225.966751 645.273743,236.480362 639.271240,247.862488 
	C636.836792,242.600098 634.836914,237.492538 632.099304,232.816910 
	C630.735535,230.487656 628.020691,228.949509 625.948669,227.027496 
	C625.980347,227.001495 625.955017,227.079407 625.989014,226.750061 
	C625.603760,225.950607 625.184509,225.480515 624.847473,224.972931 
	C624.929688,224.935425 625.015381,225.094528 624.854980,224.920776 
	C624.490845,224.506073 624.257996,224.297821 623.682739,223.984863 
	C618.288940,216.723480 611.443665,211.968201 603.320557,208.940643 
	C591.688721,204.605347 579.649597,204.294540 567.487854,205.425034 
	C552.830261,206.787521 540.798950,213.746292 529.920776,222.775848 
	C529.763916,220.741455 529.659851,219.149948 529.529968,217.163788 
	C526.528381,217.163788 523.925537,217.163788 521.234985,216.705872 
	C521.147217,213.974442 521.147217,211.700943 521.147217,209.195984 
	C502.548920,209.195984 484.471191,209.195984 465.953003,209.126556 
	C464.329590,209.037766 463.146637,209.018433 461.498596,208.992157 
	C449.651398,209.019470 438.269287,209.053711 426.428467,209.059387 
	C416.937225,209.083923 407.904694,209.137039 398.657959,209.154617 
	C398.443726,209.119080 398.027374,209.242676 397.565613,209.147705 
	C385.076965,208.989151 373.050049,208.925568 361.033264,208.402649 
	C361.043365,189.064667 361.043365,170.186020 361.043365,151.307373 
	C360.576202,150.994003 360.109070,150.680634 359.641907,150.367264 
	C358.300629,151.495071 356.694641,152.428864 355.688080,153.802048 
	C354.547089,155.358658 353.943085,157.308914 353.005127,158.624481 
	C352.900940,154.025635 352.778259,149.885895 352.932220,145.756485 
	C353.049713,142.606186 351.677277,141.983994 348.717896,142.920990 
	C348.312317,143.282303 348.198456,143.635345 347.875397,144.285934 
	C346.461823,147.495865 345.341370,150.446289 344.039917,153.314621 
	C333.465729,176.619614 318.640564,196.232635 295.288422,208.075165 
	C291.199310,210.148865 289.974274,212.354553 291.719727,216.980392 
	C295.102509,216.980392 298.566010,216.980392 301.787476,217.259842 
	C300.545074,219.712524 299.544708,221.885773 298.113861,224.994278 
	C306.216736,224.994278 312.579865,224.994278 319.034119,225.455643 
	C319.077148,253.009323 319.029114,280.101624 318.528137,307.191833 
	C314.778534,307.192230 311.481842,307.194794 308.101562,306.722717 
	C307.983734,290.269379 308.453461,274.266571 307.692657,258.322510 
	C307.337067,250.869553 305.184052,243.325287 302.685150,236.231201 
	C301.544678,232.993454 297.594910,230.745300 294.948639,228.026031 
	C294.977997,228.003738 294.970703,228.077057 294.969910,227.752487 
	C294.555573,226.966934 294.142059,226.505936 293.441101,225.888550 
	C288.289764,221.562332 284.051575,216.042191 278.456787,213.449539 
	C249.691772,200.119644 221.209885,201.751862 194.193436,218.262344 
	C188.248566,221.895386 183.070465,227.977264 179.527100,234.084747 
	C173.134354,245.103485 176.723099,256.501862 187.174683,263.257324 
	C191.319595,270.068726 197.090088,272.993469 203.488861,271.790253 
	C210.512619,270.469482 214.705246,265.461975 216.182129,257.572021 
	C217.432098,250.894302 214.135971,246.072403 210.551392,241.203278 
	C206.752335,236.042755 206.809982,233.706161 212.214767,230.127075 
	C227.772278,219.824768 244.538544,217.917816 262.509155,224.093109 
	C263.617371,226.993729 265.086609,229.675949 265.123566,232.377731 
	C265.343475,248.451828 265.232269,264.530457 265.232269,280.658508 
	C255.006409,281.433685 244.546387,281.869446 234.178207,283.087158 
	C212.819336,285.595795 192.888763,291.772095 176.508606,307.250427 
	C166.067627,307.188660 156.091553,307.162262 146.024261,306.662476 
	C145.933060,237.676041 145.933060,169.163055 145.933060,100.096931 
	C142.693558,100.096931 140.080368,100.096931 137.365448,99.642059 
	C137.263718,96.910294 137.263718,94.633415 137.263718,92.337837 
	C114.607155,92.337837 92.458794,92.337837 70.494324,92.337837 
	C70.494324,94.848015 70.494324,96.932205 70.494324,99.378273 
	C73.630608,99.378273 76.438377,99.328552 79.243858,99.387733 
	C87.170792,99.554924 95.096779,99.766769 102.562195,100.058578 
	C95.449272,100.173584 88.795509,100.286362 82.146187,100.162086 
	C79.439278,100.111488 78.189247,100.903694 78.198044,103.791496 
	C78.206703,106.632599 78.965576,108.078789 82.162010,107.998260 
	C89.308418,107.818245 96.461914,107.919571 103.706367,108.372116 
	C103.810921,173.771500 103.822533,238.705048 103.824951,303.638611 
	C103.824997,304.800171 103.714905,305.961731 103.209457,307.125153 
	C68.841812,307.084656 34.920906,307.042328 1.000000,307.000000 
M466.860382,109.564514 
	C466.572876,109.376312 466.285370,109.188103 465.407166,108.679558 
	C460.197571,99.572075 452.067139,95.725945 442.013794,97.239464 
	C432.549011,98.664375 426.261597,104.668396 423.544830,113.936302 
	C420.661835,123.771332 424.682922,132.697708 435.191528,140.544540 
	C435.484589,140.693634 435.777679,140.842728 436.004059,140.993546 
	C436.004059,140.993546 436.022614,140.929459 435.980652,141.635406 
	C441.326538,149.227264 448.935699,152.122940 457.715424,150.604446 
	C466.940063,149.009003 473.242828,143.215607 475.895111,134.083664 
	C478.674835,124.513168 474.579468,113.899651 466.990784,110.006172 
	C466.990784,110.006172 466.990784,110.075188 466.860382,109.564514 
z"/>
<path fill="#F4822B" opacity="1.000000" stroke="none" 
	d="
M1061.863159,307.047516 
	C1104.932373,307.077820 1148.001587,307.108093 1191.535400,307.069183 
	C1192.000000,346.987762 1192.000000,386.975555 1192.000000,426.956879 
	C795.000000,426.950439 398.000000,426.950439 1.000000,426.950439 
	C1.000000,387.246338 1.000000,347.591827 1.000000,307.468658 
	C34.920906,307.042328 68.841812,307.084656 103.297554,307.568909 
	C103.832390,326.353516 103.832390,344.696289 103.832390,363.666016 
	C92.142189,363.666016 81.282829,363.666016 70.426575,363.666016 
	C70.426575,366.395782 70.426575,368.482574 70.426575,371.203278 
	C84.441833,371.203278 98.183327,371.203278 111.642700,371.501953 
	C100.588554,371.800659 89.816513,371.800659 79.075851,371.800659 
	C79.075851,374.696747 79.075851,376.893707 79.075851,379.079468 
	C112.411232,379.079468 145.315186,379.079468 178.427521,379.079468 
	C178.427521,376.595306 178.427521,374.392975 178.427521,371.910767 
	C173.591888,371.910767 169.109726,371.997620 164.632248,371.889832 
	C158.381653,371.739380 152.134537,371.443573 146.354156,371.120117 
	C154.550598,371.030273 162.278809,371.030273 169.903519,371.030273 
	C169.903519,368.087128 169.903519,365.987213 169.903519,363.137421 
	C161.661102,363.137421 153.713943,363.137421 145.758774,362.657288 
	C145.749359,360.026978 145.733109,357.876617 145.748871,355.726562 
	C145.867523,339.529633 145.992477,323.332764 146.115448,307.135864 
	C156.091553,307.162262 166.067627,307.188660 176.399323,307.543396 
	C176.000839,308.753357 175.220459,309.613953 174.496613,310.519684 
	C160.803650,327.653748 162.328705,354.900421 180.262268,366.729584 
	C181.046555,367.246887 181.524033,368.229340 182.173828,369.329346 
	C187.285706,373.056946 191.949173,377.582825 197.524002,379.645660 
	C220.434113,388.123108 251.882751,384.878479 269.699554,357.256683 
	C271.971283,364.260956 277.100586,368.591583 282.166473,373.327454 
	C286.213409,378.318542 291.169586,381.432892 297.213287,382.735657 
	C311.163147,385.742676 323.432190,382.018036 334.299713,373.197571 
	C335.149689,372.507721 334.937836,370.509613 335.641296,369.373352 
	C336.484375,370.114075 336.905640,370.601013 337.497528,371.337891 
	C342.808716,374.799622 347.589661,379.023590 353.167267,381.005585 
	C363.682617,384.742126 374.735046,384.421906 385.670990,382.161560 
	C394.985748,380.236328 402.730591,375.802734 408.504883,368.054199 
	C408.629669,368.105011 408.898956,368.114746 409.010010,368.364563 
	C409.426788,368.761475 409.732513,368.908630 410.029541,369.015991 
	C410.020874,368.976196 409.939850,368.983978 409.914032,369.336243 
	C414.250854,375.782349 420.248840,378.830109 427.669495,379.148560 
	C431.653015,379.319550 435.641174,379.475586 439.627319,379.478149 
	C477.062378,379.502350 514.497437,379.491943 551.932495,379.491547 
	C553.876465,379.491516 555.820496,379.491547 557.787598,379.491547 
	C557.787598,376.646210 557.787598,374.414581 557.787598,371.886566 
	C554.982971,371.886566 552.509338,371.944916 550.039307,371.875305 
	C543.285156,371.684998 536.532471,371.440735 530.253845,371.126160 
	C537.000488,371.034485 543.272461,371.034485 549.588745,371.034485 
	C549.588745,368.210907 549.588745,365.999512 549.588745,363.158905 
	C542.621094,363.158905 535.997314,363.158905 529.473145,362.674652 
	C529.592346,354.575989 529.568359,346.961151 529.642151,339.347260 
	C529.746277,328.603424 529.922791,317.860321 530.531982,307.146362 
	C553.905334,307.159332 576.815002,307.142792 599.800049,307.580933 
	C599.875427,326.303223 599.875427,344.570801 599.875427,363.471771 
	C589.939026,363.471771 580.550476,363.471771 571.179626,363.471771 
	C571.179626,366.333282 571.179626,368.547089 571.179626,371.205444 
	C583.696411,371.205444 595.825806,371.205444 607.668701,371.503235 
	C597.974487,371.801056 588.566895,371.801056 579.288269,371.801056 
	C579.288269,374.766724 579.288269,376.867462 579.288269,379.085815 
	C609.624634,379.085815 639.673157,379.085815 669.926453,379.085815 
	C669.926453,376.615204 669.926453,374.424011 669.926453,371.909851 
	C666.776733,371.909851 663.970459,371.978729 661.168701,371.895905 
	C654.755493,371.706421 648.344482,371.442810 642.397949,371.120911 
	C649.097046,371.032501 655.330811,371.032501 661.775635,371.032501 
	C661.775635,368.317017 661.775635,366.104187 661.775635,363.176239 
	C654.959106,363.176239 648.394531,363.176239 641.835815,362.693512 
	C641.915039,353.703156 641.988464,345.195557 642.335693,336.913116 
	C647.732544,343.837280 652.695007,350.668243 658.046570,357.179443 
	C660.710327,360.420380 664.087097,363.075226 667.176086,366.330627 
	C668.143250,367.357391 669.091980,368.027954 670.005859,368.743042 
	C686.079712,381.320892 704.357361,385.618652 724.348877,382.796875 
	C738.489380,380.800995 748.331055,372.149536 756.575745,361.005676 
	C756.798767,361.017151 757.244873,360.996399 757.304321,361.425171 
	C757.363770,364.777679 757.363770,367.701416 757.363770,370.808411 
	C760.691284,370.961731 763.302246,371.082031 765.913208,371.647705 
	C765.913208,374.364075 765.913208,376.635010 765.913208,379.125427 
	C786.801270,379.125427 807.149292,379.125427 827.742676,379.125427 
	C827.742676,376.682587 827.742676,374.472015 827.742676,371.910736 
	C824.335144,371.910736 821.209045,371.988190 818.088013,371.894379 
	C811.848816,371.706879 805.612427,371.425629 799.812805,371.100311 
	C806.657227,371.017548 813.063660,371.017548 819.657715,371.017548 
	C819.657715,368.309723 819.657715,366.213379 819.657715,363.159332 
	C812.768616,363.159332 806.038269,363.159332 799.301270,362.679535 
	C799.319641,347.081512 799.344604,331.963318 799.614319,317.099121 
	C801.402161,320.993408 802.796204,324.705719 804.514771,328.261200 
	C811.123108,341.932648 822.041260,351.965668 833.117493,362.190399 
	C834.666931,363.773346 836.207947,365.030426 837.786194,366.238800 
	C864.634583,386.794067 902.828613,390.219086 930.612122,370.831757 
	C940.957581,371.006989 950.850403,371.101776 960.455811,371.463470 
	C953.094421,371.730347 946.020508,371.730347 939.136841,371.730347 
	C939.136841,374.814423 939.136841,376.904297 939.136841,378.922394 
	C962.034241,378.922394 984.580261,378.922394 1007.005188,378.922394 
	C1007.005188,376.407166 1007.005188,374.328644 1007.005188,371.913361 
	C1002.525513,371.913361 998.383606,371.997223 994.246277,371.893951 
	C987.827759,371.733765 981.412476,371.446075 975.457520,371.126099 
	C983.503784,371.039764 991.088257,371.039764 998.767334,371.039764 
	C998.767334,368.257568 998.767334,366.041168 998.767334,363.087646 
	C992.861633,363.087646 987.259460,363.087646 981.833862,362.773804 
	C995.077881,345.969788 1008.145264,329.479614 1021.489319,313.165985 
	C1033.519287,329.762054 1045.272705,346.181519 1057.749634,363.611816 
	C1049.701294,363.611816 1042.978271,363.611816 1036.237305,363.611816 
	C1036.237305,366.302734 1036.237305,368.410553 1036.237305,371.197784 
	C1046.216064,371.197784 1055.982544,371.197784 1065.460693,371.464203 
	C1058.283325,371.730621 1051.394165,371.730621 1044.622925,371.730621 
	C1044.622925,374.815308 1044.622925,376.895172 1044.622925,378.985504 
	C1071.802124,378.985504 1098.627686,378.985504 1125.581055,378.985504 
	C1125.581055,376.532196 1125.581055,374.457550 1125.581055,372.293732 
	C1119.293213,371.918976 1113.262207,371.559540 1107.667480,371.114136 
	C1111.053101,371.028198 1114.002197,371.028198 1117.052979,371.028198 
	C1117.052979,368.284088 1117.052979,365.960876 1117.052979,363.178223 
	C1111.453003,363.178223 1106.341064,363.178223 1101.076294,362.853516 
	C1088.997681,345.846619 1077.090820,329.150757 1065.100220,312.515411 
	C1064.365479,311.496094 1062.966309,310.955688 1061.848267,310.168579 
	C1061.820190,310.144775 1061.798462,310.074371 1062.186523,309.844940 
	C1062.337524,308.759521 1062.100342,307.903534 1061.863159,307.047516 
z"/>
<path fill="#FEFDFD" opacity="1.000000" stroke="none" 
	d="
M282.141266,372.992279 
	C277.100586,368.591583 271.971283,364.260956 269.593628,356.871704 
	C268.510376,353.785278 267.741089,351.335388 267.015747,348.513733 
	C266.672852,346.289276 266.286011,344.436584 265.962280,342.886292 
	C260.247070,349.715973 254.643417,356.412323 249.024597,363.070312 
	C249.009445,363.031891 249.086700,363.061096 248.784409,363.068542 
	C248.222168,363.375580 247.962204,363.675171 247.423828,364.152283 
	C227.002121,377.414276 205.983307,378.887207 184.095642,369.123810 
	C183.537247,368.874695 182.798874,369.028992 182.144440,368.995148 
	C181.524033,368.229340 181.046555,367.246887 180.262268,366.729584 
	C162.328705,354.900421 160.803650,327.653748 174.496613,310.519684 
	C175.220459,309.613953 176.000839,308.753357 176.864212,307.578796 
	C192.888763,291.772095 212.819336,285.595795 234.178207,283.087158 
	C244.546387,281.869446 255.006409,281.433685 265.232269,280.658508 
	C265.232269,264.530457 265.343475,248.451828 265.123566,232.377731 
	C265.086609,229.675949 263.617371,226.993729 262.440735,223.755798 
	C257.987701,216.409531 251.633865,213.619751 243.681152,212.809525 
	C230.019440,210.727585 217.522293,213.284866 206.121231,220.179123 
	C203.408356,221.819626 201.861664,225.388672 199.779083,228.435867 
	C200.882278,230.632904 202.113052,232.401260 203.059830,234.310425 
	C204.795135,237.809647 207.410812,241.278351 207.809982,244.960297 
	C209.173889,257.540833 200.967377,264.364380 187.062973,262.936523 
	C176.723099,256.501862 173.134354,245.103485 179.527100,234.084747 
	C183.070465,227.977264 188.248566,221.895386 194.193436,218.262344 
	C221.209885,201.751862 249.691772,200.119644 278.456787,213.449539 
	C284.051575,216.042191 288.289764,221.562332 293.521118,226.191360 
	C294.249298,227.126068 294.609985,227.601562 294.970703,228.077057 
	C294.970703,228.077057 294.977997,228.003738 294.975677,228.404755 
	C296.405151,236.898758 298.938721,244.973618 299.072052,253.087936 
	C299.566132,283.153809 299.239166,313.232758 299.303101,343.306641 
	C299.311890,347.448792 299.467224,351.641327 300.127136,355.717834 
	C300.853088,360.202118 302.874756,363.969879 308.535339,364.487549 
	C312.924713,363.427704 317.029358,362.142151 321.147400,360.901001 
	C322.417114,360.518311 323.723358,360.256805 325.155029,360.188354 
	C326.017059,360.706604 326.736908,360.976379 327.456757,361.246124 
	C327.528900,361.011078 327.601044,360.776031 327.673187,360.540985 
	C327.123016,360.363037 326.572815,360.185089 325.988525,359.635498 
	C324.246460,354.115570 321.563232,349.066528 321.027130,343.798981 
	C319.791016,331.653717 319.597534,319.402283 318.981049,307.193939 
	C319.029114,280.101624 319.077148,253.009323 319.133545,225.000671 
	C319.141876,221.702835 319.141876,219.321304 319.141876,216.519989 
	C313.669861,216.519989 308.792175,216.519989 303.747162,216.383438 
	C303.082123,216.370224 302.584381,216.493561 302.137390,216.718002 
	C302.188080,216.819107 302.029480,216.980392 302.029480,216.980392 
	C298.566010,216.980392 295.102509,216.980392 291.719727,216.980392 
	C289.974274,212.354553 291.199310,210.148865 295.288422,208.075165 
	C318.640564,196.232635 333.465729,176.619614 344.039917,153.314621 
	C345.341370,150.446289 346.461823,147.495865 348.086334,144.161392 
	C348.762085,143.517288 348.929810,143.241760 349.009644,142.912750 
	C351.677277,141.983994 353.049713,142.606186 352.932220,145.756485 
	C352.778259,149.885895 352.900940,154.025635 352.934418,158.865662 
	C352.892853,159.722397 352.821503,159.874435 352.617859,160.116638 
	C352.301178,160.525497 352.381409,160.781677 352.806335,161.439423 
	C352.886505,177.589935 352.886505,193.276413 352.886505,208.862000 
	C356.056091,208.862000 358.539612,208.862000 361.023132,208.862000 
	C373.050049,208.925568 385.076965,208.989151 397.638611,209.292862 
	C398.298492,209.716705 398.462128,209.854889 398.759857,210.372009 
	C398.916046,212.536896 398.976593,214.277313 399.014954,215.991241 
	C398.992767,215.964767 398.924438,215.954529 398.461182,215.960129 
	C392.870422,215.985306 387.741547,215.936859 382.615784,216.040756 
	C375.385895,216.187317 368.158295,216.446655 360.470825,216.678726 
	C357.744751,216.699692 355.477539,216.699692 352.888062,216.699692 
	C352.888062,218.842728 352.888062,220.482010 352.888062,222.121277 
	C352.888062,252.764374 352.878845,283.407471 352.893799,314.050568 
	C352.898193,323.042969 352.634491,332.053314 353.114716,341.022186 
	C353.530396,348.785309 355.171173,356.318085 363.457672,360.524261 
	C379.829895,365.680237 390.809021,361.402985 396.606140,348.326935 
	C397.531799,350.634399 397.889252,352.947662 399.131989,354.591766 
	C401.543060,357.781342 400.253052,360.014343 397.994293,362.303009 
	C395.734253,364.592957 393.479889,366.888489 391.110657,369.266724 
	C390.998322,369.351868 390.718445,369.385559 390.511658,369.218323 
	C389.911743,369.345154 389.518616,369.639221 388.769226,370.061798 
	C372.674133,376.659760 356.783142,377.023987 340.716248,371.452911 
	C339.670074,371.090179 338.460480,371.198669 337.326904,371.087982 
	C336.905640,370.601013 336.484375,370.114075 335.510376,369.272949 
	C334.126526,368.211273 333.295380,367.503784 332.305847,366.484619 
	C331.349854,364.727966 330.552246,363.282959 330.040619,362.356140 
	C323.974426,366.248840 319.418030,369.172729 314.500702,372.161194 
	C309.168121,373.201050 304.207642,374.885498 299.221802,374.964355 
	C293.540100,375.054169 287.835754,373.712036 282.141266,372.992279 
M265.927826,295.185333 
	C265.927826,292.774628 265.927826,290.363953 265.927826,287.498383 
	C258.762543,288.106293 252.432632,288.342529 246.197571,289.238831 
	C235.309692,290.803925 224.549973,293.060272 215.058670,299.073303 
	C201.081985,307.928009 195.061264,324.288696 200.050568,339.960480 
	C201.794907,345.439575 204.568710,350.315979 210.238632,353.825867 
	C223.396820,361.067352 238.346268,359.338135 250.116974,349.612671 
	C263.448608,338.597504 265.412720,323.558411 265.772522,306.910065 
	C265.768829,303.290771 265.765137,299.671509 265.927826,295.185333 
z"/>
<path fill="#FEFDFC" opacity="1.000000" stroke="none" 
	d="
M765.913208,371.202332 
	C763.302246,371.082031 760.691284,370.961731 757.363770,370.808411 
	C757.363770,367.701416 757.363770,364.777679 757.363037,361.164978 
	C757.278076,360.319550 757.193848,360.163055 757.070496,360.024048 
	C757.031433,360.041534 757.077698,360.113525 757.255859,360.059204 
	C757.482788,359.893799 757.591309,359.767670 757.567932,359.674774 
	C757.516602,359.471100 757.398560,359.284271 757.374390,358.634033 
	C757.463196,352.966736 757.485413,347.756012 757.660522,342.258972 
	C757.729126,340.600067 757.644714,339.227478 757.474854,336.465820 
	C755.517944,339.900055 754.292969,342.001343 753.113281,344.127747 
	C744.413391,359.810181 732.998962,372.055054 713.692749,374.956604 
	C698.375305,375.979523 684.134399,374.002350 670.916321,366.669586 
	C669.858765,366.082886 668.408936,366.203369 667.141357,365.995178 
	C664.087097,363.075226 660.710327,360.420380 658.046570,357.179443 
	C652.695007,350.668243 647.732544,343.837280 642.249939,336.553375 
	C641.015076,333.318604 639.394226,330.672791 639.379883,328.018311 
	C639.235718,301.411560 639.355652,274.803375 639.401184,248.195618 
	C645.273743,236.480362 652.654846,225.966751 663.350342,218.085785 
	C679.686462,206.048645 697.924683,202.468231 717.636169,206.300003 
	C728.826111,208.475250 737.759338,214.621796 744.943359,223.402847 
	C746.285339,225.043152 747.805542,226.537613 749.489258,228.315720 
	C749.735046,228.532074 749.891663,228.540024 749.891663,228.540024 
	C749.947571,228.762909 750.003418,228.985809 750.041626,229.792816 
	C752.371033,233.988663 754.717957,237.600418 757.064880,241.212173 
	C757.295593,241.104218 757.526245,240.996277 757.756958,240.888321 
	C757.576538,239.273392 757.396179,237.658463 757.215820,236.043518 
	C757.296692,228.570679 757.445068,221.097855 757.446838,213.625000 
	C757.455139,178.714523 757.423035,143.804047 757.423096,108.011414 
	C757.212158,104.769661 756.983459,102.410080 756.435852,99.823883 
	C747.847900,99.644890 739.578918,99.692497 731.309875,99.740105 
	C728.688965,99.545029 726.068115,99.349953 723.111328,99.129883 
	C723.111328,96.876877 723.111328,94.664726 723.111328,92.185196 
	C745.635132,92.185196 768.116089,92.185196 791.062256,92.185196 
	C791.062256,94.625221 791.062256,96.901352 791.060547,100.089996 
	C791.058899,188.385284 791.058899,275.768066 791.058899,363.564941 
	C794.080688,363.416351 796.694336,363.287842 799.307983,363.159332 
	C806.038269,363.159332 812.768616,363.159332 819.657715,363.159332 
	C819.657715,366.213379 819.657715,368.309723 819.657715,371.017548 
	C813.063660,371.017548 806.657227,371.017548 799.310303,371.032959 
	C787.550964,371.099670 776.732117,371.151001 765.913208,371.202332 
M686.968018,361.608612 
	C687.320679,361.767548 687.673279,361.926514 688.346069,362.713806 
	C707.093750,371.704163 728.208679,365.978638 740.786621,348.207458 
	C749.456970,335.957153 753.475586,321.988098 755.119629,306.326599 
	C756.964722,290.696289 756.756348,275.101929 752.867737,259.816162 
	C749.724243,247.459503 745.888000,235.248932 735.020264,226.225830 
	C725.714966,215.907852 713.920410,212.618134 700.430786,213.683670 
	C687.776550,214.683212 679.747620,221.318878 676.260620,233.302139 
	C674.734924,238.545334 673.283264,244.017899 673.144653,249.420837 
	C672.555542,272.396271 671.972168,295.394745 672.438110,318.363495 
	C672.634644,328.047943 674.622253,337.918304 677.368835,347.240631 
	C678.876648,352.358398 683.656433,356.512146 686.972107,361.021881 
	C686.972107,361.021881 686.892578,361.021637 686.968018,361.608612 
z"/>
<path fill="#FEFEFD" opacity="1.000000" stroke="none" 
	d="
M607.955200,371.205444 
	C595.825806,371.205444 583.696411,371.205444 571.179626,371.205444 
	C571.179626,368.547089 571.179626,366.333282 571.179626,363.471771 
	C580.550476,363.471771 589.939026,363.471771 599.875427,363.471771 
	C599.875427,344.570801 599.875427,326.303223 599.867310,307.099335 
	C599.865662,286.901825 599.975037,267.639771 599.828430,248.379715 
	C599.768982,240.571426 599.093628,232.780716 594.696777,225.674973 
	C594.512634,225.182083 594.268982,225.015167 593.975220,224.984497 
	C593.993713,225.020615 594.068726,224.989578 593.987000,224.658630 
	C589.866821,218.697144 584.190979,215.645416 577.486755,215.052902 
	C558.631531,213.386475 543.358032,220.132492 531.920227,235.318405 
	C523.995361,245.840179 522.440308,258.348785 522.129578,270.771729 
	C521.368469,301.199982 521.387390,331.647766 521.114624,362.087891 
	C521.109253,362.690247 521.375488,363.295044 521.624878,364.374542 
	C524.324890,363.950958 526.849243,363.554932 529.373596,363.158905 
	C535.997314,363.158905 542.621094,363.158905 549.588745,363.158905 
	C549.588745,365.999512 549.588745,368.210907 549.588745,371.034485 
	C543.272461,371.034485 537.000488,371.034485 529.806396,371.059814 
	C526.559998,371.066071 524.235596,371.041077 521.911133,371.028778 
	C503.522919,370.931366 485.134674,370.836395 466.809235,370.352722 
	C466.894470,367.884277 466.916901,365.803802 467.375610,363.628052 
	C470.187744,363.416962 472.563599,363.301086 475.305542,363.359467 
	C479.567078,363.533691 483.462463,363.533691 487.475616,363.533691 
	C487.475616,353.917480 487.475616,344.888763 487.555603,335.406952 
	C487.655365,330.799377 487.675110,326.644897 487.801758,322.097565 
	C487.784943,316.767914 487.661224,311.831177 487.605835,306.437866 
	C487.646210,278.991760 487.618286,252.002182 487.692749,224.833923 
	C487.751831,224.321182 487.561615,224.155075 487.120605,223.700226 
	C487.016693,221.175522 487.016693,219.107529 487.016693,216.820084 
	C479.918365,216.820084 473.478882,216.820084 466.885925,216.484070 
	C466.619476,213.830704 466.506500,211.513351 466.393494,209.195984 
	C484.471191,209.195984 502.548920,209.195984 521.147217,209.195984 
	C521.147217,211.700943 521.147217,213.974442 521.141113,217.149628 
	C521.135071,222.591278 521.135071,227.131256 521.135071,232.785172 
	C524.638367,228.993362 527.305969,226.106049 529.973572,223.218750 
	C540.798950,213.746292 552.830261,206.787521 567.487854,205.425034 
	C579.649597,204.294540 591.688721,204.605347 603.320557,208.940643 
	C611.443665,211.968201 618.288940,216.723480 623.736572,224.266830 
	C624.407410,224.822296 624.711426,224.958405 625.015381,225.094528 
	C625.015381,225.094528 624.929688,224.935425 624.846802,225.301239 
	C625.160950,226.137817 625.557983,226.608612 625.955017,227.079407 
	C625.955017,227.079407 625.980347,227.001495 625.975403,227.395096 
	C631.817688,238.287903 633.304138,249.703583 633.279724,261.502777 
	C633.213135,293.649597 633.256897,325.796661 633.256897,357.943634 
	C633.256897,359.698364 633.256897,361.453094 633.256897,363.660431 
	C636.591003,363.472137 639.210449,363.324188 641.829956,363.176239 
	C648.394531,363.176239 654.959106,363.176239 661.775635,363.176239 
	C661.775635,366.104187 661.775635,368.317017 661.775635,371.032501 
	C655.330811,371.032501 649.097046,371.032501 641.935791,371.057312 
	C629.990601,371.123230 618.972900,371.164337 607.955200,371.205444 
z"/>
<path fill="#FDFBFA" opacity="1.000000" stroke="none" 
	d="
M1065.749023,371.197784 
	C1055.982544,371.197784 1046.216064,371.197784 1036.237305,371.197784 
	C1036.237305,368.410553 1036.237305,366.302734 1036.237305,363.611816 
	C1042.978271,363.611816 1049.701294,363.611816 1057.749634,363.611816 
	C1045.272705,346.181519 1033.519287,329.762054 1021.392761,312.826843 
	C1018.901123,309.395020 1016.782593,306.478912 1014.792053,303.738983 
	C998.890320,323.531647 983.175232,343.092010 967.110413,363.087646 
	C972.184448,363.087646 976.920898,363.087646 981.657288,363.087646 
	C987.259460,363.087646 992.861633,363.087646 998.767334,363.087646 
	C998.767334,366.041168 998.767334,368.257568 998.767334,371.039764 
	C991.088257,371.039764 983.503784,371.039764 974.993652,371.059937 
	C969.626404,371.118927 965.184753,371.157776 960.743164,371.196594 
	C950.850403,371.101776 940.957581,371.006989 930.647095,370.422791 
	C930.400391,362.877014 930.400391,362.876556 937.782654,363.048706 
	C938.109558,363.056335 938.435913,363.085205 939.230469,363.221008 
	C942.854675,363.350098 946.045105,363.643585 949.153564,363.264252 
	C950.894958,363.051758 953.010437,362.145386 954.090027,360.836334 
	C968.768555,343.036835 983.295105,325.111938 997.859131,307.217987 
	C1001.257935,303.160065 1004.656738,299.102142 1008.187927,294.886200 
	C991.426697,271.540710 974.854919,248.459061 957.943359,224.823685 
	C954.711182,217.988083 949.851868,215.605484 943.086060,216.845963 
	C941.816772,217.078659 940.484436,216.967255 939.181152,217.014648 
	C936.405029,216.835037 933.628906,216.655426 930.572754,216.457703 
	C930.572754,214.009247 930.572754,211.783096 930.572754,209.287720 
	C960.574341,209.287720 990.415100,209.287720 1020.797791,209.287720 
	C1020.797791,211.513672 1020.797791,213.758438 1020.265747,216.424530 
	C1011.223877,216.845871 1002.713928,216.845871 993.226074,216.845871 
	C1005.178711,233.469055 1016.458862,249.181946 1027.825073,264.832367 
	C1028.134033,265.257751 1029.369995,265.010010 1030.173584,265.076172 
	C1041.131714,251.996841 1052.089844,238.917480 1063.459961,225.362610 
	C1065.895386,222.427765 1067.918701,219.968414 1070.315796,217.054810 
	C1063.086914,217.054810 1056.710205,217.054810 1050.333374,217.054810 
	C1047.730591,216.857727 1045.127808,216.660645 1042.303223,216.446777 
	C1042.303223,213.980850 1042.303223,211.750473 1042.303223,209.268921 
	C1063.466187,209.268921 1084.457031,209.268921 1105.929077,209.268921 
	C1105.929077,211.528183 1105.929077,213.772369 1105.374023,216.435913 
	C1102.486694,216.854141 1100.099731,217.178314 1097.831421,216.796722 
	C1086.887451,214.955551 1079.691772,218.926605 1073.089600,228.269363 
	C1061.620605,244.499176 1048.367920,259.468475 1035.603394,275.288116 
	C1038.745850,279.040283 1041.748047,282.625122 1044.750366,286.209961 
	C1044.750366,286.209961 1044.907104,286.240509 1044.685059,286.612122 
	C1045.586792,287.766632 1046.710571,288.549500 1047.834473,289.332367 
	C1047.834473,289.332367 1047.901245,289.106018 1047.435059,289.432190 
	C1047.908936,290.607452 1048.848999,291.456543 1049.789185,292.305634 
	C1049.789185,292.305634 1049.847046,292.120209 1049.428101,292.448059 
	C1050.280396,293.959961 1051.551758,295.144012 1052.822998,296.328094 
	C1052.822998,296.328094 1052.894287,296.109772 1052.432617,296.434296 
	C1052.909668,297.607605 1053.848389,298.456421 1054.787109,299.305237 
	C1054.787109,299.305237 1054.845093,299.121460 1054.428223,299.449585 
	C1055.281494,300.960815 1056.551758,302.143982 1057.821899,303.327148 
	C1057.821899,303.327148 1057.891602,303.110107 1057.432373,303.435608 
	C1057.910645,304.609131 1058.848267,305.457153 1059.785767,306.305145 
	C1059.785767,306.305145 1059.829712,306.126495 1059.435303,306.436401 
	C1059.959961,307.855682 1060.879272,308.965027 1061.798462,310.074371 
	C1061.798462,310.074371 1061.820190,310.144775 1061.672363,310.495361 
	C1073.484375,327.605469 1085.416016,344.385437 1097.470947,361.076447 
	C1098.232910,362.131531 1099.954224,362.493713 1101.229248,363.178223 
	C1106.341064,363.178223 1111.453003,363.178223 1117.052979,363.178223 
	C1117.052979,365.960876 1117.052979,368.284088 1117.052979,371.028198 
	C1114.002197,371.028198 1111.053101,371.028198 1107.180664,371.038940 
	C1092.754517,371.099030 1079.251831,371.148407 1065.749023,371.197784 
z"/>
<path fill="#FFFFFE" opacity="1.000000" stroke="none" 
	d="
M111.924812,371.203278 
	C98.183327,371.203278 84.441833,371.203278 70.426575,371.203278 
	C70.426575,368.482574 70.426575,366.395782 70.426575,363.666016 
	C81.282829,363.666016 92.142189,363.666016 103.832390,363.666016 
	C103.832390,344.696289 103.832390,326.353516 103.744293,307.567017 
	C103.714905,305.961731 103.824997,304.800171 103.824951,303.638611 
	C103.822533,238.705048 103.810921,173.771500 103.801178,107.959000 
	C103.542480,104.707054 103.282806,102.334030 103.023140,99.961014 
	C95.096779,99.766769 87.170792,99.554924 79.243858,99.387733 
	C76.438377,99.328552 73.630608,99.378273 70.494324,99.378273 
	C70.494324,96.932205 70.494324,94.848015 70.494324,92.337837 
	C92.458794,92.337837 114.607155,92.337837 137.263718,92.337837 
	C137.263718,94.633415 137.263718,96.910294 137.261017,100.094879 
	C137.258301,188.384109 137.258301,275.765656 137.258301,363.612640 
	C140.530090,363.429901 143.148422,363.283661 145.766769,363.137451 
	C153.713943,363.137421 161.661102,363.137421 169.903519,363.137421 
	C169.903519,365.987213 169.903519,368.087128 169.903519,371.030273 
	C162.278809,371.030273 154.550598,371.030273 145.896118,371.057068 
	C133.954834,371.123688 122.939827,371.163483 111.924812,371.203278 
z"/>
<path fill="#FCFBFB" opacity="1.000000" stroke="none" 
	d="
M833.126465,361.841827 
	C822.041260,351.965668 811.123108,341.932648 804.514771,328.261200 
	C802.796204,324.705719 801.402161,320.993408 799.509399,316.718323 
	C793.752380,298.738495 794.167969,281.403839 799.252625,264.077515 
	C805.217163,247.899887 814.183289,233.802429 827.602051,222.709534 
	C860.845886,195.227753 907.831482,199.678116 935.218628,232.948059 
	C936.442932,234.435333 937.735718,235.866211 939.078064,238.018555 
	C946.356934,249.840637 949.784790,262.071564 950.424072,275.758942 
	C911.669312,275.758942 873.465210,275.758942 834.933777,275.758942 
	C834.933777,280.196594 834.793152,284.171051 834.958801,288.132690 
	C835.583557,303.075775 835.697327,318.077057 837.214417,332.932800 
	C838.190796,342.493958 841.841797,351.547180 850.320251,358.001648 
	C854.637756,360.361053 858.403809,363.489349 862.692688,364.601868 
	C892.245544,372.267670 927.591003,360.603851 938.604126,322.590454 
	C940.545837,315.888611 941.266724,315.496643 948.616394,317.735748 
	C943.375244,342.628845 930.361328,361.151642 906.112061,370.815674 
	C904.669556,371.390564 903.342041,372.254150 901.976440,372.984375 
	C901.991882,372.985413 902.017151,372.968414 901.636475,372.779724 
	C899.663574,373.084961 898.071350,373.578918 896.097961,374.165222 
	C875.202393,376.985229 855.717773,374.235504 837.698242,363.471527 
	C836.335938,362.657745 834.657776,362.372681 833.126465,361.841827 
M907.046265,225.961151 
	C907.046265,225.961151 907.113159,225.911804 907.048706,225.225479 
	C893.837219,212.048401 872.435242,209.493271 855.001099,219.115311 
	C840.072937,227.354309 832.343689,244.798172 835.578735,265.845947 
	C838.078552,265.845947 840.565552,265.845947 843.973938,265.985687 
	C868.232300,265.985687 892.490601,265.985687 916.943237,265.985687 
	C916.943237,259.925262 917.256165,254.429596 916.869629,248.983551 
	C916.295898,240.900040 913.994385,233.324631 908.151367,226.462036 
	C907.778931,226.267654 907.406433,226.073273 907.046265,225.961151 
z"/>
<path fill="#F3822C" opacity="1.000000" stroke="none" 
	d="
M901.961060,372.983368 
	C903.342041,372.254150 904.669556,371.390564 906.112061,370.815674 
	C930.361328,361.151642 943.375244,342.628845 948.616394,317.735748 
	C941.266724,315.496643 940.545837,315.888611 938.604126,322.590454 
	C927.591003,360.603851 892.245544,372.267670 862.692688,364.601868 
	C858.403809,363.489349 854.637756,360.361053 850.319946,357.619965 
	C849.913818,356.422516 849.953369,355.712097 849.701294,355.127350 
	C843.068359,339.741333 842.816223,323.522369 843.396912,307.191956 
	C894.583191,307.181213 945.769470,307.170471 997.407471,307.188843 
	C983.295105,325.111938 968.768555,343.036835 954.090027,360.836334 
	C953.010437,362.145386 950.894958,363.051758 949.153564,363.264252 
	C946.045105,363.643585 942.854675,363.350098 939.435181,362.929688 
	C948.885986,351.979187 954.417969,339.456390 957.080383,325.192261 
	C953.987305,325.192261 951.231018,325.192261 948.358276,325.192261 
	C945.489075,338.299683 940.115723,349.945801 930.283569,359.028687 
	C922.274597,366.427277 913.250610,372.088165 901.961060,372.983368 
z"/>
<path fill="#F5832B" opacity="1.000000" stroke="none" 
	d="
M465.953003,209.126556 
	C466.506500,211.513351 466.619476,213.830704 466.711609,216.941132 
	C466.646393,228.043381 466.553619,238.352631 466.566864,248.661728 
	C466.603027,276.765778 466.683990,304.869720 466.732452,333.045593 
	C466.717743,333.117493 466.683319,333.419373 466.441803,333.671539 
	C464.008484,336.814941 461.991150,339.861023 459.589661,342.566132 
	C454.100800,348.748962 448.532745,354.910431 440.201538,357.409943 
	C433.723114,359.353638 430.302673,357.999786 427.068420,351.818146 
	C427.059570,349.957153 427.086243,348.526154 427.369385,346.803101 
	C427.929504,344.890656 428.146393,343.248260 428.549744,341.653046 
	C435.556091,313.941803 442.607361,286.241943 449.601135,258.527527 
	C453.764648,242.028793 457.845612,225.509262 461.963684,208.999084 
	C463.146637,209.018433 464.329590,209.037766 465.953003,209.126556 
z"/>
<path fill="#895227" opacity="1.000000" stroke="none" 
	d="
M461.498566,208.992157 
	C457.845612,225.509262 453.764648,242.028793 449.601135,258.527527 
	C442.607361,286.241943 435.556091,313.941803 428.549744,341.653046 
	C428.146393,343.248260 427.929504,344.890656 427.324707,346.326477 
	C427.013885,305.671356 427.014221,265.200867 426.963928,224.730392 
	C426.961487,222.783554 426.512604,220.837280 426.086975,218.544327 
	C424.345245,217.903687 422.793915,217.393860 421.230042,217.351898 
	C413.803436,217.152618 406.373413,217.080856 398.977692,216.710632 
	C398.981964,216.289902 398.953186,216.122208 398.924438,215.954529 
	C398.924438,215.954529 398.992767,215.964767 399.480103,216.021332 
	C408.815643,216.077896 417.663788,216.077896 426.887207,216.077896 
	C426.887207,213.300018 426.887207,211.193985 426.887207,209.087952 
	C438.269287,209.053711 449.651398,209.019470 461.498566,208.992157 
z"/>
<path fill="#080302" opacity="1.000000" stroke="none" 
	d="
M145.758774,362.657318 
	C143.148422,363.283661 140.530090,363.429901 137.258301,363.612640 
	C137.258301,275.765656 137.258301,188.384109 137.362732,100.549751 
	C140.080368,100.096931 142.693558,100.096931 145.933060,100.096931 
	C145.933060,169.163055 145.933060,237.676041 146.024261,306.662445 
	C145.992477,323.332764 145.867523,339.529633 145.748871,355.726562 
	C145.733109,357.876617 145.749359,360.026978 145.758774,362.657318 
z"/>
<path fill="#030303" opacity="1.000000" stroke="none" 
	d="
M799.182373,263.614197 
	C794.167969,281.403839 793.752380,298.738495 799.264648,316.464325 
	C799.344604,331.963318 799.319641,347.081512 799.301270,362.679535 
	C796.694336,363.287842 794.080688,363.416351 791.058899,363.564941 
	C791.058899,275.768066 791.058899,188.385284 791.137207,100.545990 
	C793.662537,100.089462 796.109558,100.089462 799.112061,100.089462 
	C799.112061,154.809540 799.112061,208.980194 799.182373,263.614197 
z"/>
<path fill="#030202" opacity="1.000000" stroke="none" 
	d="
M843.287598,306.720123 
	C842.816223,323.522369 843.068359,339.741333 849.701294,355.127350 
	C849.953369,355.712097 849.913818,356.422516 850.010498,357.456085 
	C841.841797,351.547180 838.190796,342.493958 837.214417,332.932800 
	C835.697327,318.077057 835.583557,303.075775 834.958801,288.132690 
	C834.793152,284.171051 834.933777,280.196594 834.933777,275.758942 
	C873.465210,275.758942 911.669312,275.758942 950.424072,275.758942 
	C949.784790,262.071564 946.356934,249.840637 939.162109,238.366638 
	C940.160522,238.469696 941.473083,238.654816 942.104919,239.409637 
	C952.713562,252.083511 957.682129,266.913605 959.029968,283.871094 
	C920.333191,283.871094 882.036621,283.871094 843.178345,283.871094 
	C843.178345,291.735199 843.178345,298.991760 843.287598,306.720123 
z"/>
<path fill="#F4822B" opacity="1.000000" stroke="none" 
	d="
M434.998810,140.067429 
	C424.682922,132.697708 420.661835,123.771332 423.544830,113.936302 
	C426.261597,104.668396 432.549011,98.664375 442.013794,97.239464 
	C452.067139,95.725945 460.197571,99.572075 465.742462,109.138153 
	C466.382111,109.756233 466.686432,109.915710 466.990784,110.075188 
	C466.990784,110.075188 466.990784,110.006172 466.870361,110.435059 
	C473.041901,129.280853 458.453033,144.259171 443.273682,142.253006 
	C440.840851,141.931473 438.438873,141.376511 436.022614,140.929459 
	C436.022614,140.929459 436.004059,140.993546 436.010071,140.716095 
	C435.676971,140.314896 435.337891,140.191162 434.998810,140.067429 
z"/>
<path fill="#140606" opacity="1.000000" stroke="none" 
	d="
M1044.927490,285.834839 
	C1041.748047,282.625122 1038.745850,279.040283 1035.603394,275.288116 
	C1048.367920,259.468475 1061.620605,244.499176 1073.089600,228.269363 
	C1079.691772,218.926605 1086.887451,214.955551 1097.831421,216.796722 
	C1100.099731,217.178314 1102.486694,216.854141 1105.264771,216.872421 
	C1108.505737,217.034363 1111.300903,217.179123 1114.443970,217.341904 
	C1114.443970,219.815277 1114.443970,222.044128 1114.443970,225.046356 
	C1107.929565,225.046356 1101.484375,224.764984 1095.087158,225.196365 
	C1092.794556,225.350952 1089.932861,226.660614 1088.494995,228.403503 
	C1074.624390,245.215378 1060.954956,262.194519 1047.384888,279.250702 
	C1046.081909,280.888489 1045.839355,283.369965 1044.927490,285.834839 
z"/>
<path fill="#0F0C0B" opacity="1.000000" stroke="none" 
	d="
M308.255829,364.278992 
	C302.874756,363.969879 300.853088,360.202118 300.127136,355.717834 
	C299.467224,351.641327 299.311890,347.448792 299.303101,343.306641 
	C299.239166,313.232758 299.566132,283.153809 299.072052,253.087936 
	C298.938721,244.973618 296.405151,236.898758 294.946320,228.427048 
	C297.594910,230.745300 301.544678,232.993454 302.685150,236.231201 
	C305.184052,243.325287 307.337067,250.869553 307.692657,258.322510 
	C308.453461,274.266571 307.983734,290.269379 308.004028,307.166412 
	C308.078674,326.816132 308.167236,345.547577 308.255829,364.278992 
z"/>
<path fill="#110F0E" opacity="1.000000" stroke="none" 
	d="
M641.835815,362.693512 
	C639.210449,363.324188 636.591003,363.472137 633.256897,363.660431 
	C633.256897,361.453094 633.256897,359.698364 633.256897,357.943634 
	C633.256897,325.796661 633.213135,293.649597 633.279724,261.502777 
	C633.304138,249.703583 631.817688,238.287903 625.943726,227.421082 
	C628.020691,228.949509 630.735535,230.487656 632.099304,232.816910 
	C634.836914,237.492538 636.836792,242.600098 639.271240,247.862488 
	C639.355652,274.803375 639.235718,301.411560 639.379883,328.018311 
	C639.394226,330.672791 641.015076,333.318604 641.976196,336.328186 
	C641.988464,345.195557 641.915039,353.703156 641.835815,362.693512 
z"/>
<path fill="#070404" opacity="1.000000" stroke="none" 
	d="
M187.174683,263.257324 
	C200.967377,264.364380 209.173889,257.540833 207.809982,244.960297 
	C207.410812,241.278351 204.795135,237.809647 203.059830,234.310425 
	C202.113052,232.401260 200.882278,230.632904 200.095337,228.275909 
	C205.340729,225.072647 210.003281,221.530609 215.258591,219.905777 
	C224.666916,216.996948 234.432175,215.242630 244.048248,213.005737 
	C251.633865,213.619751 257.987701,216.409531 262.139954,223.546448 
	C244.538544,217.917816 227.772278,219.824768 212.214767,230.127075 
	C206.809982,233.706161 206.752335,236.042755 210.551392,241.203278 
	C214.135971,246.072403 217.432098,250.894302 216.182129,257.572021 
	C214.705246,265.461975 210.512619,270.469482 203.488861,271.790253 
	C197.090088,272.993469 191.319595,270.068726 187.174683,263.257324 
z"/>
<path fill="#F4842D" opacity="1.000000" stroke="none" 
	d="
M308.535339,364.487549 
	C308.167236,345.547577 308.078674,326.816132 308.087616,307.641052 
	C311.481842,307.194794 314.778534,307.192230 318.528137,307.191833 
	C319.597534,319.402283 319.791016,331.653717 321.027130,343.798981 
	C321.563232,349.066528 324.246460,354.115570 325.733887,359.651489 
	C325.346527,360.006073 325.179718,359.972931 325.012878,359.939819 
	C323.723358,360.256805 322.417114,360.518311 321.147400,360.901001 
	C317.029358,362.142151 312.924713,363.427704 308.535339,364.487549 
z"/>
<path fill="#070302" opacity="1.000000" stroke="none" 
	d="
M436.001648,141.282440 
	C438.438873,141.376511 440.840851,141.931473 443.273682,142.253006 
	C458.453033,144.259171 473.041901,129.280853 466.836823,110.443237 
	C474.579468,113.899651 478.674835,124.513168 475.895111,134.083664 
	C473.242828,143.215607 466.940063,149.009003 457.715424,150.604446 
	C448.935699,152.122940 441.326538,149.227264 436.001648,141.282440 
z"/>
<path fill="#010100" opacity="1.000000" stroke="none" 
	d="
M361.033264,208.402649 
	C358.539612,208.862000 356.056091,208.862000 352.886505,208.862000 
	C352.886505,193.276413 352.886505,177.589935 352.891968,161.204239 
	C352.848328,160.345490 352.799225,160.185974 352.750153,160.026459 
	C352.821503,159.874435 352.892853,159.722397 353.034912,159.329193 
	C353.943085,157.308914 354.547089,155.358658 355.688080,153.802048 
	C356.694641,152.428864 358.300629,151.495071 359.641907,150.367264 
	C360.109070,150.680634 360.576202,150.994003 361.043365,151.307373 
	C361.043365,170.186020 361.043365,189.064667 361.033264,208.402649 
z"/>
<path fill="#0D0707" opacity="1.000000" stroke="none" 
	d="
M1030.003906,264.771942 
	C1029.369995,265.010010 1028.134033,265.257751 1027.825073,264.832367 
	C1016.458862,249.181946 1005.178711,233.469055 993.226074,216.845871 
	C1002.713928,216.845871 1011.223877,216.845871 1020.170715,216.858429 
	C1023.218872,217.040207 1025.830078,217.209396 1028.763306,217.399460 
	C1028.763306,219.878937 1028.763306,222.104218 1028.763306,224.927734 
	C1020.039856,224.927734 1011.375671,224.927734 1001.616760,224.927734 
	C1011.458496,238.718491 1020.646423,251.593109 1030.003906,264.771942 
z"/>
<path fill="#0A0505" opacity="1.000000" stroke="none" 
	d="
M756.754761,100.050499 
	C756.983459,102.410080 757.212158,104.769661 757.294128,107.556274 
	C748.601318,107.983299 740.055115,107.983299 731.156311,107.983299 
	C731.156311,105.256386 731.156311,103.154892 731.773560,100.647369 
	C740.512146,100.177734 748.633423,100.114113 756.754761,100.050499 
z"/>
<path fill="#070302" opacity="1.000000" stroke="none" 
	d="
M102.562195,100.058578 
	C103.282806,102.334030 103.542480,104.707054 103.707336,107.493179 
	C96.461914,107.919571 89.308418,107.818245 82.162010,107.998260 
	C78.965576,108.078789 78.206703,106.632599 78.198044,103.791496 
	C78.189247,100.903694 79.439278,100.111488 82.146187,100.162086 
	C88.795509,100.286362 95.449272,100.173584 102.562195,100.058578 
z"/>
<path fill="#8D8B8A" opacity="1.000000" stroke="none" 
	d="
M426.428467,209.059372 
	C426.887207,211.193985 426.887207,213.300018 426.887207,216.077896 
	C417.663788,216.077896 408.815643,216.077896 399.502319,216.047821 
	C398.976593,214.277313 398.916046,212.536896 398.834595,210.188919 
	C398.813660,209.581360 398.872192,209.190155 398.872192,209.190155 
	C407.904694,209.137039 416.937225,209.083923 426.428467,209.059372 
z"/>
<path fill="#020101" opacity="1.000000" stroke="none" 
	d="
M303.914490,216.519989 
	C308.792175,216.519989 313.669861,216.519989 319.141876,216.519989 
	C319.141876,219.321304 319.141876,221.702835 319.042419,224.539307 
	C312.579865,224.994278 306.216736,224.994278 298.113861,224.994278 
	C299.544708,221.885773 300.545074,219.712524 301.787476,217.259842 
	C302.029480,216.980392 302.188080,216.819107 302.439362,216.812897 
	C303.098602,216.711121 303.506531,216.615570 303.914490,216.519989 
z"/>
<path fill="#0F0606" opacity="1.000000" stroke="none" 
	d="
M1050.280029,217.498505 
	C1056.710205,217.054810 1063.086914,217.054810 1070.315796,217.054810 
	C1067.918701,219.968414 1065.895386,222.427765 1063.580200,225.044235 
	C1059.174316,225.201370 1055.060425,225.201370 1050.226685,225.201370 
	C1050.226685,222.422104 1050.226685,220.182159 1050.280029,217.498505 
z"/>
<path fill="#070404" opacity="1.000000" stroke="none" 
	d="
M939.088989,217.461090 
	C940.484436,216.967255 941.816772,217.078659 943.086060,216.845963 
	C949.851868,215.605484 954.711182,217.988083 957.681335,224.589111 
	C951.700867,224.908279 945.642700,224.908279 938.996765,224.908279 
	C938.996765,222.361252 938.996765,220.134399 939.088989,217.461090 
z"/>
<path fill="#0F0C0B" opacity="1.000000" stroke="none" 
	d="
M529.920776,222.775864 
	C527.305969,226.106049 524.638367,228.993362 521.135071,232.785172 
	C521.135071,227.131256 521.135071,222.591278 521.228882,217.607544 
	C523.925537,217.163788 526.528381,217.163788 529.529968,217.163788 
	C529.659851,219.149948 529.763916,220.741455 529.920776,222.775864 
z"/>
<path fill="#2D2828" opacity="1.000000" stroke="none" 
	d="
M756.928589,235.857086 
	C757.396179,237.658463 757.576538,239.273392 757.756958,240.888321 
	C757.526245,240.996277 757.295593,241.104218 757.064880,241.212173 
	C754.717957,237.600418 752.371033,233.988663 750.255249,230.063263 
	C752.538147,231.723282 754.589722,233.696976 756.928589,235.857086 
z"/>
<path fill="#2D2828" opacity="1.000000" stroke="none" 
	d="
M756.435852,99.823883 
	C748.633423,100.114113 740.512146,100.177734 731.965210,100.255341 
	C731.539612,100.269333 731.398804,100.015411 731.354370,99.877762 
	C739.578918,99.692497 747.847900,99.644890 756.435852,99.823883 
z"/>
<path fill="#140606" opacity="1.000000" stroke="none" 
	d="
M1057.845947,302.966614 
	C1056.551758,302.143982 1055.281494,300.960815 1054.331787,299.450317 
	C1055.724976,300.283966 1056.797607,301.445007 1057.845947,302.966614 
z"/>
<path fill="#140606" opacity="1.000000" stroke="none" 
	d="
M1052.845825,295.967438 
	C1051.551758,295.144012 1050.280396,293.959961 1049.331055,292.448486 
	C1050.724854,293.282990 1051.796753,294.444885 1052.845825,295.967438 
z"/>
<path fill="#140606" opacity="1.000000" stroke="none" 
	d="
M1047.844727,288.952972 
	C1046.710571,288.549500 1045.586792,287.766632 1044.605469,286.618652 
	C1045.783691,287.026855 1046.819336,287.800201 1047.844727,288.952972 
z"/>
<path fill="#140606" opacity="1.000000" stroke="none" 
	d="
M1062.186523,309.844940 
	C1060.879272,308.965027 1059.959961,307.855682 1059.343750,306.446716 
	C1060.192749,306.380493 1060.738525,306.613892 1061.573730,306.947388 
	C1062.100342,307.903534 1062.337524,308.759521 1062.186523,309.844940 
z"/>
<path fill="#140606" opacity="1.000000" stroke="none" 
	d="
M1059.846924,305.951324 
	C1058.848267,305.457153 1057.910645,304.609131 1057.319092,303.423218 
	C1058.412720,303.922729 1059.160400,304.760101 1059.846924,305.951324 
z"/>
<path fill="#140606" opacity="1.000000" stroke="none" 
	d="
M1054.847046,298.951538 
	C1053.848389,298.456421 1052.909668,297.607605 1052.318604,296.420898 
	C1053.413086,296.921265 1054.160034,297.759552 1054.847046,298.951538 
z"/>
<path fill="#140606" opacity="1.000000" stroke="none" 
	d="
M1049.846802,291.951843 
	C1048.848999,291.456543 1047.908936,290.607452 1047.317627,289.420044 
	C1048.412476,289.920471 1049.158447,290.759277 1049.846802,291.951843 
z"/>
<path fill="#0F0C0B" opacity="1.000000" stroke="none" 
	d="
M294.969910,227.752487 
	C294.609985,227.601562 294.249298,227.126068 293.808563,226.347763 
	C294.142059,226.505936 294.555573,226.966934 294.969910,227.752487 
z"/>
<path fill="#110F0E" opacity="1.000000" stroke="none" 
	d="
M625.989014,226.750061 
	C625.557983,226.608612 625.160950,226.137817 624.764587,225.338730 
	C625.184509,225.480515 625.603760,225.950607 625.989014,226.750061 
z"/>
<path fill="#2D2828" opacity="1.000000" stroke="none" 
	d="
M749.878540,228.572617 
	C749.891663,228.540024 749.735046,228.532074 749.791443,228.585144 
	C749.847839,228.638229 749.865356,228.605209 749.878540,228.572617 
z"/>
<path fill="#FDFCFC" opacity="1.000000" stroke="none" 
	d="
M348.717896,142.920990 
	C348.929810,143.241760 348.762085,143.517288 348.295563,143.863846 
	C348.198456,143.635345 348.312317,143.282303 348.717896,142.920990 
z"/>
<path fill="#070302" opacity="1.000000" stroke="none" 
	d="
M435.095154,140.305984 
	C435.337891,140.191162 435.676971,140.314896 436.043396,140.715240 
	C435.777679,140.842728 435.484589,140.693634 435.095154,140.305984 
z"/>
<path fill="#070302" opacity="1.000000" stroke="none" 
	d="
M466.925598,109.819855 
	C466.686432,109.915710 466.382111,109.756233 466.037811,109.298325 
	C466.285370,109.188103 466.572876,109.376312 466.925598,109.819855 
z"/>
<path fill="#110F0E" opacity="1.000000" stroke="none" 
	d="
M624.854980,224.920776 
	C624.711426,224.958405 624.407410,224.822296 624.049683,224.404236 
	C624.257996,224.297821 624.490845,224.506073 624.854980,224.920776 
z"/>
<path fill="#FDFCFC" opacity="1.000000" stroke="none" 
	d="
M398.657959,209.154617 
	C398.872192,209.190155 398.813660,209.581360 398.738953,209.764450 
	C398.462128,209.854889 398.298492,209.716705 398.100342,209.387848 
	C398.027374,209.242676 398.443726,209.119080 398.657959,209.154617 
z"/>
<path fill="#952625" opacity="1.000000" stroke="none" 
	d="
M594.705811,225.900818 
	C599.093628,232.780716 599.768982,240.571426 599.828430,248.379715 
	C599.975037,267.639771 599.865662,286.901825 599.791931,306.644653 
	C576.815002,307.142792 553.905334,307.159332 530.449097,306.672729 
	C530.592224,292.899750 530.680054,279.564758 532.106934,266.374664 
	C534.475220,244.482788 548.299194,229.419189 568.949402,224.258301 
	C577.497253,222.122040 585.734314,223.524109 594.068726,224.989578 
	C594.068726,224.989578 593.993713,225.020615 594.134460,225.113586 
	C594.418152,225.438354 594.561646,225.669769 594.705811,225.900818 
z"/>
<path fill="#8D8B8A" opacity="1.000000" stroke="none" 
	d="
M426.271606,218.890732 
	C426.512604,220.837280 426.961487,222.783554 426.963928,224.730392 
	C427.014221,265.200867 427.013885,305.671356 427.068237,346.618500 
	C427.086243,348.526154 427.059570,349.957153 427.031128,352.258118 
	C427.002167,359.029541 426.974976,364.931030 426.498413,370.907349 
	C420.679321,370.316132 415.309570,369.650055 409.939850,368.983978 
	C409.939850,368.983978 410.020874,368.976196 409.930054,368.771454 
	C409.525818,368.416046 409.212402,368.265411 408.898956,368.114746 
	C408.898956,368.114746 408.629669,368.105011 408.293823,367.768616 
	C405.935638,365.851990 403.913269,364.271698 402.805725,363.406250 
	C398.498840,365.553741 394.860931,367.367645 391.223022,369.181580 
	C393.479889,366.888489 395.734253,364.592957 397.994293,362.303009 
	C400.253052,360.014343 401.543060,357.781342 399.131989,354.591766 
	C397.889252,352.947662 397.531799,350.634399 396.521515,347.901337 
	C396.381134,345.366577 396.279388,343.510010 396.640808,341.748474 
	C398.999878,330.250397 401.459351,318.772919 403.996399,306.887177 
	C406.225525,298.320557 408.421478,290.174561 410.447601,281.986542 
	C415.134857,263.044067 419.739868,244.081177 424.583954,224.838440 
	C425.283630,222.663773 425.777618,220.777252 426.271606,218.890732 
z"/>
<path fill="#110807" opacity="1.000000" stroke="none" 
	d="
M593.987000,224.658630 
	C585.734314,223.524109 577.497253,222.122040 568.949402,224.258301 
	C548.299194,229.419189 534.475220,244.482788 532.106934,266.374664 
	C530.680054,279.564758 530.592224,292.899750 529.985474,306.643250 
	C529.922791,317.860321 529.746277,328.603424 529.642151,339.347260 
	C529.568359,346.961151 529.592346,354.575989 529.473145,362.674652 
	C526.849243,363.554932 524.324890,363.950958 521.624878,364.374542 
	C521.375488,363.295044 521.109253,362.690247 521.114624,362.087891 
	C521.387390,331.647766 521.368469,301.199982 522.129578,270.771729 
	C522.440308,258.348785 523.995361,245.840179 531.920227,235.318405 
	C543.358032,220.132492 558.631531,213.386475 577.486755,215.052902 
	C584.190979,215.645416 589.866821,218.697144 593.987000,224.658630 
z"/>
<path fill="#060402" opacity="1.000000" stroke="none" 
	d="
M409.914032,369.336243 
	C415.309570,369.650055 420.679321,370.316132 426.911896,370.968719 
	C428.888397,370.929321 430.002075,370.903412 431.574585,370.928833 
	C443.604462,370.900299 455.175476,370.820465 466.746460,370.740662 
	C485.134674,370.836395 503.522919,370.931366 521.911133,371.028778 
	C524.235596,371.041077 526.559998,371.066071 529.331787,371.151489 
	C536.532471,371.440735 543.285156,371.684998 550.039307,371.875305 
	C552.509338,371.944916 554.982971,371.886566 557.787598,371.886566 
	C557.787598,374.414581 557.787598,376.646210 557.787598,379.491547 
	C555.820496,379.491547 553.876465,379.491516 551.932495,379.491547 
	C514.497437,379.491943 477.062378,379.502350 439.627319,379.478149 
	C435.641174,379.475586 431.653015,379.319550 427.669495,379.148560 
	C420.248840,378.830109 414.250854,375.782349 409.914032,369.336243 
z"/>
<path fill="#090603" opacity="1.000000" stroke="none" 
	d="
M901.976440,372.984375 
	C913.250610,372.088165 922.274597,366.427277 930.283569,359.028687 
	C940.115723,349.945801 945.489075,338.299683 948.358276,325.192261 
	C951.231018,325.192261 953.987305,325.192261 957.080383,325.192261 
	C954.417969,339.456390 948.885986,351.979187 938.967163,362.812805 
	C938.435913,363.085205 938.109558,363.056335 937.782654,363.048706 
	C930.400391,362.876556 930.400391,362.877014 930.194458,370.342346 
	C902.828613,390.219086 864.634583,386.794067 837.786194,366.238800 
	C836.207947,365.030426 834.666931,363.773346 833.117493,362.190399 
	C834.657776,362.372681 836.335938,362.657745 837.698242,363.471527 
	C855.717773,374.235504 875.202393,376.985229 896.528198,374.299164 
	C898.898804,373.883331 900.457947,373.425873 902.017151,372.968445 
	C902.017151,372.968414 901.991882,372.985413 901.976440,372.984375 
z"/>
<path fill="#0F0803" opacity="1.000000" stroke="none" 
	d="
M981.833862,362.773804 
	C976.920898,363.087646 972.184448,363.087646 967.110413,363.087646 
	C983.175232,343.092010 998.890320,323.531647 1014.792053,303.738983 
	C1016.782593,306.478912 1018.901123,309.395020 1021.116150,312.650269 
	C1008.145264,329.479614 995.077881,345.969788 981.833862,362.773804 
z"/>
<path fill="#080604" opacity="1.000000" stroke="none" 
	d="
M266.971802,348.885529 
	C267.741089,351.335388 268.510376,353.785278 269.385620,356.620117 
	C251.882751,384.878479 220.434113,388.123108 197.524002,379.645660 
	C191.949173,377.582825 187.285706,373.056946 182.173828,369.329346 
	C182.798874,369.028992 183.537247,368.874695 184.095642,369.123810 
	C205.983307,378.887207 227.002121,377.414276 247.758148,364.157410 
	C248.609497,363.677032 248.848099,363.369049 249.086700,363.061096 
	C249.086700,363.061096 249.009445,363.031891 249.388672,363.146118 
	C255.502548,358.468719 261.237183,353.677124 266.971802,348.885529 
z"/>
<path fill="#090603" opacity="1.000000" stroke="none" 
	d="
M667.176086,366.330627 
	C668.408936,366.203369 669.858765,366.082886 670.916321,366.669586 
	C684.134399,374.002350 698.375305,375.979523 714.105347,375.056091 
	C733.765076,374.642090 745.728821,364.193878 754.094543,348.450317 
	C755.160645,346.443970 756.366516,344.511841 757.507568,342.545288 
	C757.485413,347.756012 757.463196,352.966736 757.224182,358.867767 
	C757.030762,359.743195 757.054199,359.928345 757.077698,360.113525 
	C757.077698,360.113525 757.031433,360.041534 756.872620,360.125061 
	C756.483582,360.419952 756.363220,360.681824 756.352722,360.994171 
	C748.331055,372.149536 738.489380,380.800995 724.348877,382.796875 
	C704.357361,385.618652 686.079712,381.320892 670.005859,368.743042 
	C669.091980,368.027954 668.143250,367.357391 667.176086,366.330627 
z"/>
<path fill="#020101" opacity="1.000000" stroke="none" 
	d="
M111.642700,371.501953 
	C122.939827,371.163483 133.954834,371.123688 145.427887,371.146912 
	C152.134537,371.443573 158.381653,371.739380 164.632248,371.889832 
	C169.109726,371.997620 173.591888,371.910767 178.427521,371.910767 
	C178.427521,374.392975 178.427521,376.595306 178.427521,379.079468 
	C145.315186,379.079468 112.411232,379.079468 79.075851,379.079468 
	C79.075851,376.893707 79.075851,374.696747 79.075851,371.800659 
	C89.816513,371.800659 100.588554,371.800659 111.642700,371.501953 
z"/>
<path fill="#010101" opacity="1.000000" stroke="none" 
	d="
M607.668701,371.503235 
	C618.972900,371.164337 629.990601,371.123230 641.470459,371.145721 
	C648.344482,371.442810 654.755493,371.706421 661.168701,371.895905 
	C663.970459,371.978729 666.776733,371.909851 669.926453,371.909851 
	C669.926453,374.424011 669.926453,376.615204 669.926453,379.085815 
	C639.673157,379.085815 609.624634,379.085815 579.288269,379.085815 
	C579.288269,376.867462 579.288269,374.766724 579.288269,371.801056 
	C588.566895,371.801056 597.974487,371.801056 607.668701,371.503235 
z"/>
<path fill="#030201" opacity="1.000000" stroke="none" 
	d="
M1065.460693,371.464203 
	C1079.251831,371.148407 1092.754517,371.099030 1106.744141,371.124878 
	C1113.262207,371.559540 1119.293213,371.918976 1125.581055,372.293732 
	C1125.581055,374.457550 1125.581055,376.532196 1125.581055,378.985504 
	C1098.627686,378.985504 1071.802124,378.985504 1044.622925,378.985504 
	C1044.622925,376.895172 1044.622925,374.815308 1044.622925,371.730621 
	C1051.394165,371.730621 1058.283325,371.730621 1065.460693,371.464203 
z"/>
<path fill="#080604" opacity="1.000000" stroke="none" 
	d="
M391.110657,369.266724 
	C394.860931,367.367645 398.498840,365.553741 402.805725,363.406250 
	C403.913269,364.271698 405.935638,365.851990 408.169067,367.717834 
	C402.730591,375.802734 394.985748,380.236328 385.670990,382.161560 
	C374.735046,384.421906 363.682617,384.742126 353.167267,381.005585 
	C347.589661,379.023590 342.808716,374.799622 337.497528,371.337891 
	C338.460480,371.198669 339.670074,371.090179 340.716248,371.452911 
	C356.783142,377.023987 372.674133,376.659760 389.008911,370.170074 
	C389.976013,369.895081 390.347229,369.640320 390.718445,369.385559 
	C390.718445,369.385559 390.998322,369.351868 391.110657,369.266724 
z"/>
<path fill="#010100" opacity="1.000000" stroke="none" 
	d="
M960.455811,371.463470 
	C965.184753,371.157776 969.626404,371.118927 974.531860,371.146271 
	C981.412476,371.446075 987.827759,371.733765 994.246277,371.893951 
	C998.383606,371.997223 1002.525513,371.913361 1007.005188,371.913361 
	C1007.005188,374.328644 1007.005188,376.407166 1007.005188,378.922394 
	C984.580261,378.922394 962.034241,378.922394 939.136841,378.922394 
	C939.136841,376.904297 939.136841,374.814423 939.136841,371.730347 
	C946.020508,371.730347 953.094421,371.730347 960.455811,371.463470 
z"/>
<path fill="#010101" opacity="1.000000" stroke="none" 
	d="
M765.913208,371.647705 
	C776.732117,371.151001 787.550964,371.099670 798.872375,371.115723 
	C805.612427,371.425629 811.848816,371.706879 818.088013,371.894379 
	C821.209045,371.988190 824.335144,371.910736 827.742676,371.910736 
	C827.742676,374.472015 827.742676,376.682587 827.742676,379.125427 
	C807.149292,379.125427 786.801270,379.125427 765.913208,379.125427 
	C765.913208,376.635010 765.913208,374.364075 765.913208,371.647705 
z"/>
<path fill="#0A0704" opacity="1.000000" stroke="none" 
	d="
M332.464233,366.796265 
	C333.295380,367.503784 334.126526,368.211273 335.088593,369.019165 
	C334.937836,370.509613 335.149689,372.507721 334.299713,373.197571 
	C323.432190,382.018036 311.163147,385.742676 297.213287,382.735657 
	C291.169586,381.432892 286.213409,378.318542 282.166473,373.327454 
	C287.835754,373.712036 293.540100,375.054169 299.221802,374.964355 
	C304.207642,374.885498 309.168121,373.201050 314.824585,372.409912 
	C322.413177,374.323364 327.601379,371.035553 332.464233,366.796265 
z"/>
<path fill="#1F1712" opacity="1.000000" stroke="none" 
	d="
M1101.076294,362.853516 
	C1099.954224,362.493713 1098.232910,362.131531 1097.470947,361.076447 
	C1085.416016,344.385437 1073.484375,327.605469 1061.700439,310.519165 
	C1062.966309,310.955688 1064.365479,311.496094 1065.100220,312.515411 
	C1077.090820,329.150757 1088.997681,345.846619 1101.076294,362.853516 
z"/>
<path fill="#060402" opacity="1.000000" stroke="none" 
	d="
M409.010010,368.364563 
	C409.212402,368.265411 409.525818,368.416046 409.938721,368.811218 
	C409.732513,368.908630 409.426788,368.761475 409.010010,368.364563 
z"/>
<path fill="#E0853E" opacity="1.000000" stroke="none" 
	d="
M756.575745,361.005676 
	C756.363220,360.681824 756.483582,360.419952 756.911682,360.107544 
	C757.193848,360.163055 757.278076,360.319550 757.303589,360.736206 
	C757.244873,360.996399 756.798767,361.017151 756.575745,361.005676 
z"/>
<path fill="#F4832C" opacity="1.000000" stroke="none" 
	d="
M265.541138,307.764221 
	C265.412720,323.558411 263.448608,338.597504 250.116974,349.612671 
	C238.346268,359.338135 223.396820,361.067352 210.102493,353.126984 
	C209.503677,351.184235 208.998947,349.954224 208.584656,348.694458 
	C203.156128,332.187408 210.405228,313.747772 225.279541,307.278229 
	C238.914597,307.615173 252.227859,307.689697 265.541138,307.764221 
z"/>
<path fill="#F3822C" opacity="1.000000" stroke="none" 
	d="
M403.886017,307.288727 
	C401.459351,318.772919 398.999878,330.250397 396.640808,341.748474 
	C396.279388,343.510010 396.381134,345.366577 396.353271,347.604797 
	C390.809021,361.402985 379.829895,365.680237 363.459656,360.088745 
	C362.770599,357.283112 361.952423,355.183380 361.913025,353.069153 
	C361.628357,337.794769 361.501190,322.517517 361.770630,307.235413 
	C376.106750,307.249359 389.996399,307.269043 403.886017,307.288727 
z"/>
<path fill="#030101" opacity="1.000000" stroke="none" 
	d="
M361.324097,307.241150 
	C361.501190,322.517517 361.628357,337.794769 361.913025,353.069153 
	C361.952423,355.183380 362.770599,357.283112 363.226257,359.825073 
	C355.171173,356.318085 353.530396,348.785309 353.114716,341.022186 
	C352.634491,332.053314 352.898193,323.042969 352.893799,314.050568 
	C352.878845,283.407471 352.888062,252.764374 352.888062,222.121277 
	C352.888062,220.482010 352.888062,218.842728 352.888062,216.699692 
	C355.477539,216.699692 357.744751,216.699692 360.911438,216.865875 
	C374.188843,217.009277 386.566711,216.986481 398.944611,216.963684 
	C406.373413,217.080856 413.803436,217.152618 421.230042,217.351898 
	C422.793915,217.393860 424.345245,217.903687 426.086975,218.544327 
	C425.777618,220.777252 425.283630,222.663773 424.082214,224.772491 
	C402.676422,224.994705 381.978088,224.994705 361.056183,224.994705 
	C361.056183,233.072388 361.033142,240.220093 361.060577,247.367615 
	C361.137238,267.325500 361.234772,287.283325 361.324097,307.241150 
z"/>
<path fill="#0F0606" opacity="1.000000" stroke="none" 
	d="
M224.957764,307.015778 
	C210.405228,313.747772 203.156128,332.187408 208.584656,348.694458 
	C208.998947,349.954224 209.503677,351.184235 209.927521,352.824188 
	C204.568710,350.315979 201.794907,345.439575 200.050568,339.960480 
	C195.061264,324.288696 201.081985,307.928009 215.058670,299.073303 
	C224.549973,293.060272 235.309692,290.803925 246.197571,289.238831 
	C252.432632,288.342529 258.762543,288.106293 265.927826,287.498383 
	C265.927826,290.363953 265.927826,292.774628 265.450562,295.652588 
	C262.692505,296.408295 260.409302,296.678772 258.131378,296.988312 
	C246.539978,298.563293 235.019272,300.377563 224.957764,307.015778 
z"/>
<path fill="#992B25" opacity="1.000000" stroke="none" 
	d="
M225.279541,307.278229 
	C235.019272,300.377563 246.539978,298.563293 258.131378,296.988312 
	C260.409302,296.678772 262.692505,296.408295 265.367371,296.086029 
	C265.765137,299.671509 265.768829,303.290771 265.656830,307.337158 
	C252.227859,307.689697 238.914597,307.615173 225.279541,307.278229 
z"/>
<path fill="#942E2D" opacity="1.000000" stroke="none" 
	d="
M243.681152,212.809509 
	C234.432175,215.242630 224.666916,216.996948 215.258591,219.905777 
	C210.003281,221.530609 205.340729,225.072647 200.094818,227.910706 
	C201.861664,225.388672 203.408356,221.819626 206.121231,220.179123 
	C217.522293,213.284866 230.019440,210.727585 243.681152,212.809509 
z"/>
<path fill="#EE8635" opacity="1.000000" stroke="none" 
	d="
M267.015747,348.513733 
	C261.237183,353.677124 255.502548,358.468719 249.403839,363.184509 
	C254.643417,356.412323 260.247070,349.715973 265.962280,342.886292 
	C266.286011,344.436584 266.672852,346.289276 267.015747,348.513733 
z"/>
<path fill="#EE8635" opacity="1.000000" stroke="none" 
	d="
M332.305847,366.484619 
	C327.601379,371.035553 322.413177,374.323364 315.185486,372.345367 
	C319.418030,369.172729 323.974426,366.248840 330.040619,362.356140 
	C330.552246,363.282959 331.349854,364.727966 332.305847,366.484619 
z"/>
<path fill="#CEABAA" opacity="1.000000" stroke="none" 
	d="
M398.977692,216.710632 
	C386.566711,216.986481 374.188843,217.009277 361.370331,216.844910 
	C368.158295,216.446655 375.385895,216.187317 382.615784,216.040756 
	C387.741547,215.936859 392.870422,215.985306 398.461182,215.960129 
	C398.953186,216.122208 398.981964,216.289902 398.977692,216.710632 
z"/>
<path fill="#FDFCFC" opacity="1.000000" stroke="none" 
	d="
M325.155029,360.188354 
	C325.179718,359.972931 325.346527,360.006073 325.767975,360.023163 
	C326.572815,360.185089 327.123016,360.363037 327.673187,360.540985 
	C327.601044,360.776031 327.528900,361.011078 327.456757,361.246124 
	C326.736908,360.976379 326.017059,360.706604 325.155029,360.188354 
z"/>
<path fill="#FDFCFC" opacity="1.000000" stroke="none" 
	d="
M303.747162,216.383453 
	C303.506531,216.615570 303.098602,216.711121 302.388672,216.711792 
	C302.584381,216.493561 303.082123,216.370224 303.747162,216.383453 
z"/>
<path fill="#8D8B8A" opacity="1.000000" stroke="none" 
	d="
M390.511658,369.218323 
	C390.347229,369.640320 389.976013,369.895081 389.365143,370.041565 
	C389.518616,369.639221 389.911743,369.345154 390.511658,369.218323 
z"/>
<path fill="#FDFCFC" opacity="1.000000" stroke="none" 
	d="
M352.617859,160.116638 
	C352.799225,160.185974 352.848328,160.345490 352.811829,160.740204 
	C352.381409,160.781677 352.301178,160.525497 352.617859,160.116638 
z"/>
<path fill="#EE8635" opacity="1.000000" stroke="none" 
	d="
M248.784409,363.068542 
	C248.848099,363.369049 248.609497,363.677032 248.036575,363.979858 
	C247.962204,363.675171 248.222168,363.375580 248.784409,363.068542 
z"/>
<path fill="#952524" opacity="1.000000" stroke="none" 
	d="
M735.100098,226.916382 
	C745.888000,235.248932 749.724243,247.459503 752.867737,259.816162 
	C756.756348,275.101929 756.964722,290.696289 754.554443,306.754211 
	C729.460449,307.186676 704.931641,307.191528 680.294922,306.723999 
	C680.466919,291.126160 680.382324,275.981171 681.190674,260.884033 
	C681.559021,254.005005 683.087219,247.031082 685.154053,240.433762 
	C689.038269,228.035858 697.543335,222.475616 710.498718,221.805038 
	C719.256897,221.351715 727.159607,223.977448 735.100098,226.916382 
z"/>
<path fill="#F4822C" opacity="1.000000" stroke="none" 
	d="
M680.402893,307.196411 
	C704.931641,307.191528 729.460449,307.186676 754.450562,307.184448 
	C753.475586,321.988098 749.456970,335.957153 740.786621,348.207458 
	C728.208679,365.978638 707.093750,371.704163 688.121704,362.090210 
	C687.562378,361.318298 687.227478,361.169983 686.892578,361.021667 
	C686.892578,361.021637 686.972107,361.021881 687.082520,360.682281 
	C680.632385,343.176270 679.397888,325.329407 680.402893,307.196411 
z"/>
<path fill="#060404" opacity="1.000000" stroke="none" 
	d="
M680.294922,306.723999 
	C679.397888,325.329407 680.632385,343.176270 687.076904,360.721619 
	C683.656433,356.512146 678.876648,352.358398 677.368835,347.240631 
	C674.622253,337.918304 672.634644,328.047943 672.438110,318.363495 
	C671.972168,295.394745 672.555542,272.396271 673.144653,249.420837 
	C673.283264,244.017899 674.734924,238.545334 676.260620,233.302139 
	C679.747620,221.318878 687.776550,214.683212 700.430786,213.683670 
	C713.920410,212.618134 725.714966,215.907852 735.060181,226.571106 
	C727.159607,223.977448 719.256897,221.351715 710.498718,221.805038 
	C697.543335,222.475616 689.038269,228.035858 685.154053,240.433762 
	C683.087219,247.031082 681.559021,254.005005 681.190674,260.884033 
	C680.382324,275.981171 680.466919,291.126160 680.294922,306.723999 
z"/>
<path fill="#E0853E" opacity="1.000000" stroke="none" 
	d="
M757.660583,342.259003 
	C756.366516,344.511841 755.160645,346.443970 754.094543,348.450317 
	C745.728821,364.193878 733.765076,374.642090 714.583923,375.031219 
	C732.998962,372.055054 744.413391,359.810181 753.113281,344.127747 
	C754.292969,342.001343 755.517944,339.900055 757.474854,336.465820 
	C757.644714,339.227478 757.729126,340.600067 757.660583,342.259003 
z"/>
<path fill="#060404" opacity="1.000000" stroke="none" 
	d="
M686.930298,361.315125 
	C687.227478,361.169983 687.562378,361.318298 687.961609,361.776062 
	C687.673279,361.926514 687.320679,361.767548 686.930298,361.315125 
z"/>
<path fill="#E0853E" opacity="1.000000" stroke="none" 
	d="
M757.255859,360.059204 
	C757.054199,359.928345 757.030762,359.743195 757.157471,359.324341 
	C757.398560,359.284271 757.516602,359.471100 757.567932,359.674774 
	C757.591309,359.767670 757.482788,359.893799 757.255859,360.059204 
z"/>
<path fill="#952524" opacity="1.000000" stroke="none" 
	d="
M487.590363,225.012589 
	C487.618286,252.002182 487.646210,278.991760 487.178223,306.491028 
	C482.845306,307.058228 479.008270,307.115753 475.094849,306.699127 
	C475.018463,279.333618 475.018463,252.442245 475.018463,224.991287 
	C479.308685,224.991287 483.090546,224.991287 487.051392,225.013672 
	C487.230377,225.036057 487.590363,225.012589 487.590363,225.012589 
z"/>
<path fill="#030101" opacity="1.000000" stroke="none" 
	d="
M486.872437,224.991287 
	C483.090546,224.991287 479.308685,224.991287 475.018463,224.991287 
	C475.018463,252.442245 475.018463,279.333618 475.005188,307.139160 
	C475.028473,312.010773 475.065063,315.968231 474.956787,320.247803 
	C472.123657,324.704529 469.435394,328.839142 466.747162,332.973724 
	C466.683990,304.869720 466.603027,276.765778 466.566864,248.661728 
	C466.553619,238.352631 466.646393,228.043381 466.865082,217.277145 
	C473.478882,216.820084 479.918365,216.820084 487.016693,216.820084 
	C487.016693,219.107529 487.016693,221.175522 487.019531,223.902496 
	C487.022400,224.561478 486.872437,224.991287 486.872437,224.991287 
z"/>
<path fill="#060402" opacity="1.000000" stroke="none" 
	d="
M474.939423,363.185242 
	C472.563599,363.301086 470.187744,363.416962 467.256348,363.124634 
	C466.615509,357.903442 466.530304,353.090393 466.612579,347.941101 
	C466.849762,346.858124 466.919434,346.111450 467.311646,345.206726 
	C469.876343,341.856842 472.118500,338.664948 474.545471,335.804993 
	C474.901093,337.604004 475.071899,339.071136 475.330719,341.294250 
	C479.795258,334.504425 483.745056,328.497437 487.694855,322.490448 
	C487.675110,326.644897 487.655365,330.799377 487.348755,335.654053 
	C484.589691,340.479614 482.591797,345.007019 479.523529,348.627258 
	C475.805847,353.013733 474.265564,357.636902 474.939423,363.185242 
z"/>
<path fill="#F3822C" opacity="1.000000" stroke="none" 
	d="
M466.445099,348.277344 
	C466.530304,353.090393 466.615509,357.903442 466.820038,363.219910 
	C466.916901,365.803802 466.894470,367.884277 466.809235,370.352692 
	C455.175476,370.820465 443.604462,370.900299 431.803162,370.657562 
	C438.350616,367.088715 445.457184,364.372284 451.804840,360.432983 
	C457.143402,357.119873 461.598755,352.383606 466.445099,348.277344 
z"/>
<path fill="#F38A39" opacity="1.000000" stroke="none" 
	d="
M475.305542,363.359436 
	C474.265564,357.636902 475.805847,353.013733 479.523529,348.627258 
	C482.591797,345.007019 484.589691,340.479614 487.268768,336.107178 
	C487.475616,344.888763 487.475616,353.917480 487.475616,363.533691 
	C483.462463,363.533691 479.567078,363.533691 475.305542,363.359436 
z"/>
<path fill="#D97E47" opacity="1.000000" stroke="none" 
	d="
M487.801758,322.097565 
	C483.745056,328.497437 479.795258,334.504425 475.330719,341.294250 
	C475.071899,339.071136 474.901093,337.604004 474.691345,335.572815 
	C478.227875,328.778931 481.803314,322.549103 485.639099,315.865601 
	C483.360413,314.710419 481.584137,313.809937 479.901428,312.956879 
	C478.061249,315.628632 476.581421,317.777161 475.101624,319.925690 
	C475.065063,315.968231 475.028473,312.010773 475.081543,307.613281 
	C479.008270,307.115753 482.845306,307.058228 487.109924,306.947571 
	C487.661224,311.831177 487.784943,316.767914 487.801758,322.097565 
z"/>
<path fill="#D97E47" opacity="1.000000" stroke="none" 
	d="
M487.051392,225.013672 
	C486.872437,224.991287 487.022400,224.561478 487.123474,224.359222 
	C487.561615,224.155075 487.751831,224.321182 487.692749,224.833923 
	C487.590363,225.012589 487.230377,225.036057 487.051392,225.013672 
z"/>
<path fill="#110807" opacity="1.000000" stroke="none" 
	d="
M594.696777,225.674973 
	C594.561646,225.669769 594.418152,225.438354 594.115967,225.077484 
	C594.268982,225.015167 594.512634,225.182083 594.696777,225.674973 
z"/>
<path fill="#942524" opacity="1.000000" stroke="none" 
	d="
M908.522217,227.031738 
	C913.994385,233.324631 916.295898,240.900040 916.869629,248.983551 
	C917.256165,254.429596 916.943237,259.925262 916.943237,265.985687 
	C892.490601,265.985687 868.232300,265.985687 843.528259,265.499084 
	C844.637573,236.210556 861.906677,220.322968 890.327209,222.101135 
	C895.979858,222.454803 901.520752,224.595276 907.113159,225.911804 
	C907.113159,225.911804 907.046265,225.961151 907.125061,226.259430 
	C907.643311,226.715714 908.082764,226.873718 908.522217,227.031738 
z"/>
<path fill="#060404" opacity="1.000000" stroke="none" 
	d="
M907.080933,225.568634 
	C901.520752,224.595276 895.979858,222.454803 890.327209,222.101135 
	C861.906677,220.322968 844.637573,236.210556 843.067627,265.429199 
	C840.565552,265.845947 838.078552,265.845947 835.578735,265.845947 
	C832.343689,244.798172 840.072937,227.354309 855.001099,219.115311 
	C872.435242,209.493271 893.837219,212.048401 907.080933,225.568634 
z"/>
<path fill="#F3822C" opacity="1.000000" stroke="none" 
	d="
M901.636475,372.779724 
	C900.457947,373.425873 898.898804,373.883331 896.909363,374.206848 
	C898.071350,373.578918 899.663574,373.084961 901.636475,372.779724 
z"/>
<path fill="#060404" opacity="1.000000" stroke="none" 
	d="
M908.336792,226.746887 
	C908.082764,226.873718 907.643311,226.715714 907.118896,226.218292 
	C907.406433,226.073273 907.778931,226.267654 908.336792,226.746887 
z"/>
<path fill="#854F24" opacity="1.000000" stroke="none" 
	d="
M466.612579,347.941101 
	C461.598755,352.383606 457.143402,357.119873 451.804840,360.432983 
	C445.457184,364.372284 438.350616,367.088715 431.344299,370.606262 
	C430.002075,370.903412 428.888397,370.929321 427.361267,370.893860 
	C426.974976,364.931030 427.002167,359.029541 427.066650,352.688110 
	C430.302673,357.999786 433.723114,359.353638 440.201538,357.409943 
	C448.532745,354.910431 454.100800,348.748962 459.589661,342.566132 
	C461.991150,339.861023 464.008484,336.814941 466.523987,334.194550 
	C466.894806,338.098511 466.941986,341.731628 466.989136,345.364746 
	C466.919434,346.111450 466.849762,346.858124 466.612579,347.941101 
z"/>
<path fill="#8C8A88" opacity="1.000000" stroke="none" 
	d="
M467.311646,345.206726 
	C466.941986,341.731628 466.894806,338.098511 466.765503,333.942383 
	C466.683319,333.419373 466.717743,333.117493 466.732452,333.045593 
	C469.435394,328.839142 472.123657,324.704529 474.956757,320.247803 
	C476.581421,317.777161 478.061249,315.628632 479.901428,312.956879 
	C481.584137,313.809937 483.360413,314.710419 485.639099,315.865601 
	C481.803314,322.549103 478.227875,328.778931 474.506531,335.240906 
	C472.118500,338.664948 469.876343,341.856842 467.311646,345.206726 
z"/>
<path fill="#952524" opacity="1.000000" stroke="none" 
	d="
M361.770630,307.235413 
	C361.234772,287.283325 361.137238,267.325500 361.060577,247.367615 
	C361.033142,240.220093 361.056183,233.072388 361.056183,224.994705 
	C381.978088,224.994705 402.676422,224.994705 423.876495,225.060638 
	C419.739868,244.081177 415.134857,263.044067 410.447601,281.986542 
	C408.421478,290.174561 406.225525,298.320557 403.996399,306.887177 
	C389.996399,307.269043 376.106750,307.249359 361.770630,307.235413 
z"/>
</svg>